<?xml version="1.0" encoding="utf-8"?>
<!-- Generator: Adobe Illustrator 22.1.0, SVG Export Plug-In . SVG Version: 6.00 Build 0)  -->
<svg version="1.1" id="Layer_1" xmlns="http://www.w3.org/2000/svg" xmlns:xlink="http://www.w3.org/1999/xlink" x="0px" y="0px"
	 viewBox="0 0 195 65" style="enable-background:new 0 0 195 65;" xml:space="preserve">
<g>
	<path d="M59.2,47.4C53.6,57,43.4,63.3,31.7,63.3C14.2,63.3,0,49.1,0,31.6S14.2-0.2,31.7-0.2c11.6,0,21.8,6.3,27.2,15.6L49.2,22
		c-3.4-6.2-9.9-10.4-17.5-10.4c-11,0-20,9-20,20s9,20,20,20c7.5,0,13.9-4.1,17.3-10.2L59.2,47.4z"/>
	<path d="M128.9,63.3h-12.5l-2.1-5.1c-5,3.3-10.9,5.1-17.2,5.1s-12.2-1.8-17.1-5.1L78,63.3H65.6L91,0h12.5L128.9,63.3z M109.9,47.2
		l-9-22.3l-3.8-9.3L84.6,47.2c3.4,2.8,7.7,4.5,12.6,4.5C102,51.7,106.5,50,109.9,47.2z"/>
	<path d="M172.3,63.3h-13.2l-23-63.4h13.2L165.8,45l16.3-45.1h13.2L172.3,63.3z"/>
</g>
</svg>
