<?xml version="1.0" encoding="utf-8"?>
<!-- Generator: Adobe Illustrator 22.1.0, SVG Export Plug-In . SVG Version: 6.00 Build 0)  -->
<svg version="1.1" id="Layer_1" xmlns="http://www.w3.org/2000/svg" xmlns:xlink="http://www.w3.org/1999/xlink" x="0px" y="0px"
	 viewBox="0 0 450 224.4" style="enable-background:new 0 0 450 224.4;" xml:space="preserve">
<style type="text/css">
	.st0{display:none;fill:none;}
</style>
<rect x="82.5" y="176.3" class="st0" width="420.4" height="55.4"/>
<g>
	<path d="M61.1,49c-5.8,9.9-16.3,16.4-28.4,16.4C14.6,65.4,0,50.7,0,32.6S14.6-0.3,32.8-0.3c12,0,22.5,6.5,28.1,16.1l-10,6.9
		C47.4,16.4,40.6,12,32.8,12c-11.4,0-20.6,9.3-20.6,20.6s9.3,20.6,20.6,20.6c7.8,0,14.4-4.3,17.9-10.5L61.1,49z"/>
	<path d="M133.1,65.4h-12.9l-2.1-5.3c-5.1,3.4-11.3,5.3-17.8,5.3s-12.6-1.9-17.6-5.3l-2.1,5.3H67.7L94,0h12.9L133.1,65.4z
		 M113.5,48.7l-9.3-23l-3.9-9.6l-13,32.6c3.5,2.9,8,4.6,13,4.6S110,51.6,113.5,48.7z"/>
	<path d="M189.7,65.4h-13.4l-5-8.5c-4,2.1-8.6,3.3-13.5,3.3h-4.4v5.3h-12.9V0h9.4h3.5h4.4C174.5,0,188,13.5,188,30
		c0,7.6-2.9,14.5-7.4,19.8L189.7,65.4z M157.9,48.4c10,0,18.3-8.3,18.3-18.4c0-10-8.3-18.3-18.3-18.3h-4.4v36.6H157.9z"/>
	<path d="M243.4,47c0,11.9-9.4,18.4-21.8,18.4c-10.5,0-17.8-4.3-22-10.3l9.8-7.9c2.6,3.8,6.1,6.5,11.9,6.5c5.5,0,9-2.8,9-6.5
		c0-4.5-3.6-6.1-9.6-8.8l-3.3-1.4c-9.5-4.1-15.8-9.1-15.8-19.9c0-9.9,7.5-17.4,19.3-17.4c7.4,0,13,2.4,17.1,8.3l-9.4,7.8
		c-2.1-3.3-4.4-4.5-7.8-4.5c-3.9,0-6.4,2.5-6.4,5.6c0,4,2.5,5.5,8.1,8l3.3,1.4C237.1,31.1,243.4,36,243.4,47z"/>
</g>
<g>
	<path d="M195.9,130.6h-8.7l-1.4-3.5c-3.4,2.3-7.6,3.5-11.9,3.5c-4.4,0-8.5-1.3-11.8-3.5l-1.4,3.5H152l17.6-43.9h8.7L195.9,130.6z
		 M182.7,119.5l-6.2-15.5l-2.6-6.5l-8.7,21.9c2.4,1.9,5.4,3.1,8.7,3.1S180.4,121.4,182.7,119.5z"/>
	<path d="M237.5,86.7v41.2v2.7h-8.6h-0.1v-3.5v-0.4l-19.1-25.5v1v28.5h-8.7V86.7h8.7l19.1,25.5v-0.6V86.7H237.5z"/>
	<path d="M280.9,108.6c0,12.2-9.8,22-22,22h-6.1H251h-6.9V86.7h7.2h1.4h6.1C271,86.7,280.9,96.5,280.9,108.6z M272.7,108.6
		c0-7.6-6.2-13.8-13.9-13.8h-6.1v27.6h6.1C266.5,122.5,272.7,116.3,272.7,108.6z"/>
</g>
<g>
	<path d="M220.4,223.3h-13.6L183,157.8h13.6l17,46.6l16.9-46.6h13.6L220.4,223.3z"/>
	<path d="M317.7,223.3h-12.9l-2.1-5.3c-5.1,3.4-11.3,5.3-17.8,5.3s-12.6-1.9-17.6-5.3l-2.1,5.3h-12.9l26.3-65.4h12.9L317.7,223.3z
		 M298.1,206.7l-9.3-23l-3.9-9.6l-13,32.6c3.5,2.9,8,4.6,13,4.6S294.6,209.6,298.1,206.7z"/>
	<path d="M379.6,157.9v61.4v4h-12.8h-0.1v-5.3v-0.6l-28.4-38v1.5v42.4h-12.9v-65.4h12.9l28.4,38v-0.9v-37.1H379.6z"/>
	<path d="M433.1,204.9c0,11.9-9.4,18.4-21.8,18.4c-10.5,0-17.8-4.3-22-10.3l9.8-7.9c2.6,3.8,6.1,6.5,11.9,6.5c5.5,0,9-2.8,9-6.5
		c0-4.5-3.6-6.1-9.6-8.8l-3.3-1.4c-9.5-4.1-15.8-9.1-15.8-19.9c0-9.9,7.5-17.4,19.3-17.4c7.4,0,13,2.4,17.1,8.3l-9.4,7.8
		c-2.1-3.3-4.4-4.5-7.8-4.5c-3.9,0-6.4,2.5-6.4,5.6c0,4,2.5,5.5,8.1,8l3.3,1.4C426.9,189.1,433.1,193.9,433.1,204.9z"/>
</g>
</svg>
